<?xml version="1.0" standalone="no"?>
<!DOCTYPE svg PUBLIC "-//W3C//DTD SVG 20010904//EN"
 "http://www.w3.org/TR/2001/REC-SVG-20010904/DTD/svg10.dtd">
<svg version="1.0" xmlns="http://www.w3.org/2000/svg"
 width="900.000000pt" height="900.000000pt" viewBox="0 0 900.000000 900.000000"
 preserveAspectRatio="xMidYMid meet">
<metadata>
Created by potrace 1.10, written by Peter Selinger 2001-2011
</metadata>
<g transform="translate(0.000000,900.000000) scale(0.100000,-0.100000)"
fill="#ffffff" stroke="none">
<path d="M1290 8988 c0 -6 -14 -23 -31 -37 -63 -53 -59 217 -59 -3548 0 -2212
-3 -3451 -10 -3467 l-10 -26 -502 0 c-464 0 -505 -2 -530 -18 -54 -35 -68 -65
-68 -138 l0 -69 828 -828 c455 -455 840 -834 856 -842 41 -21 124 -19 162 4
38 23 1609 1592 1644 1641 20 29 24 47 25 102 0 65 -1 69 -38 105 l-37 38
-518 5 -517 5 -5 3486 c-4 3021 -7 3488 -19 3505 -8 10 -33 36 -54 57 l-40 37
-538 0 c-407 0 -539 -3 -539 -12z"/>
</g>
</svg>
