<?xml version="1.0" standalone="no"?>
<!DOCTYPE svg PUBLIC "-//W3C//DTD SVG 20010904//EN"
 "http://www.w3.org/TR/2001/REC-SVG-20010904/DTD/svg10.dtd">
<svg version="1.0" xmlns="http://www.w3.org/2000/svg"
 width="300.000000pt" height="398.000000pt" viewBox="0 0 300.000000 398.000000"
 preserveAspectRatio="xMidYMid meet">
<metadata>
Created by potrace 1.10, written by Peter Selinger 2001-2011
</metadata>
<g transform="translate(0.000000,398.000000) scale(0.100000,-0.100000)"
fill="#000000" stroke="none">
<path d="M747 2951 c-411 -412 -747 -756 -747 -765 0 -9 3 -16 7 -16 4 0 339
332 745 738 406 405 743 738 750 740 7 1 344 -328 748 -733 404 -404 738 -735
742 -735 5 0 8 6 8 13 0 11 -1489 1507 -1501 1507 -3 0 -341 -337 -752 -749z"/>
<path d="M746 2881 c-499 -499 -747 -754 -745 -765 3 -11 245 225 754 734
l750 750 747 -748 c507 -506 748 -741 748 -727 0 13 -253 273 -743 763 -408
408 -747 742 -752 742 -6 0 -347 -337 -759 -749z"/>
<path d="M500 1995 l0 -215 40 0 40 0 0 90 0 90 86 0 85 0 -3 32 -3 31 -82 -2
-83 -2 0 58 0 58 100 -3 100 -3 0 40 0 41 -140 0 -140 0 0 -215z m67 157 c-12
-13 -17 -36 -17 -72 0 -36 5 -59 17 -72 15 -17 15 -19 0 -36 -12 -13 -17 -37
-17 -85 0 -36 -4 -69 -10 -72 -7 -4 -10 57 -10 174 l0 181 27 0 c25 0 25 -1
10 -18z"/>
<path d="M900 1993 l0 -213 40 0 40 0 0 213 0 212 -40 0 -40 0 0 -212z m37
-95 c-1 -51 -3 -10 -3 92 0 102 2 143 3 93 2 -51 2 -135 0 -185z"/>
<path d="M1130 1995 l0 -215 40 0 39 0 3 135 3 134 108 -134 c101 -127 109
-135 142 -135 l35 0 0 213 0 214 -46 -1 -45 -1 3 -138 c2 -75 1 -137 -2 -137
-3 0 -11 10 -19 22 -7 12 -56 75 -108 140 -82 102 -99 118 -124 118 l-29 0 0
-215z m149 55 c117 -148 126 -157 146 -140 12 10 15 37 15 131 0 68 4 120 10
124 7 4 10 -57 10 -174 0 -100 -4 -181 -9 -181 -5 0 -53 55 -107 123 -117 146
-123 151 -146 130 -15 -14 -18 -34 -18 -135 0 -72 -4 -118 -10 -118 -6 0 -10
67 -10 180 0 138 3 180 13 180 6 -1 54 -55 106 -120z"/>
<path d="M1640 1996 l0 -216 103 0 c91 0 109 3 155 26 57 28 84 65 103 137 24
98 -26 209 -111 245 -20 8 -82 17 -142 20 l-108 5 0 -217z m77 156 c-24 -26
-25 -286 -1 -320 14 -21 14 -22 -10 -22 l-26 0 0 180 0 180 27 0 c25 0 25 -1
10 -18z m210 -24 c29 -24 43 -68 43 -135 0 -78 -20 -121 -72 -153 -43 -26 -48
-17 -8 17 41 34 60 79 60 139 0 72 -24 113 -96 161 -11 8 -3 7 20 -2 22 -9 46
-21 53 -27z m-40 -30 c23 -23 28 -38 30 -90 4 -74 -8 -103 -57 -136 -26 -18
-45 -22 -83 -20 l-48 3 0 138 c0 75 1 138 1 140 0 1 29 0 65 -3 53 -4 70 -10
92 -32z"/>
<path d="M2130 1995 l0 -215 43 0 43 0 0 71 -1 72 40 1 c38 1 40 -1 85 -71
l45 -73 47 0 47 0 -49 79 -49 80 34 34 c32 32 35 40 35 91 0 48 -4 60 -31 90
-38 44 -79 56 -196 56 l-93 0 0 -215z m80 166 c0 -6 -4 -13 -10 -16 -5 -3 -10
-42 -10 -87 0 -72 2 -80 21 -85 20 -6 20 -6 -5 -32 -19 -20 -26 -39 -29 -81
-2 -30 -4 27 -5 128 -2 176 -1 182 18 182 11 0 20 -4 20 -9z m200 -40 c22 -41
12 -97 -25 -141 -34 -41 -35 -42 -19 -73 9 -18 25 -44 35 -59 21 -29 23 -38 9
-38 -5 0 -32 34 -59 75 -37 57 -45 75 -33 75 21 1 56 29 71 57 20 40 13 80
-21 119 l-33 37 32 -17 c18 -9 37 -25 43 -35z m-57 -8 c20 -19 23 -72 4 -97
-9 -13 -29 -18 -77 -19 l-65 -2 -3 59 c-2 32 -1 64 1 70 7 17 118 7 140 -11z"/>
<path d="M0 1855 c0 -28 1481 -1508 1504 -1504 29 7 1497 1482 1494 1502 -2
12 -233 -213 -750 -730 l-748 -748 -750 750 c-511 511 -750 744 -750 730z"/>
<path d="M0 1788 c0 -7 338 -351 750 -763 l751 -751 747 748 c411 412 748 755
750 763 2 8 0 15 -4 15 -5 0 -340 -332 -746 -737 -406 -406 -741 -739 -745
-740 -5 -2 -341 330 -748 737 -407 407 -743 740 -747 740 -5 0 -8 -6 -8 -12z"/>
</g>
</svg>
