<?xml version="1.0" encoding="iso-8859-1"?>
<!-- Generator: Adobe Illustrator 16.0.0, SVG Export Plug-In . SVG Version: 6.00 Build 0)  -->
<!DOCTYPE svg PUBLIC "-//W3C//DTD SVG 1.1//EN" "http://www.w3.org/Graphics/SVG/1.1/DTD/svg11.dtd">
<svg version="1.1" id="Capa_1" xmlns="http://www.w3.org/2000/svg" xmlns:xlink="http://www.w3.org/1999/xlink" x="0px" y="0px"
	 width="71.284px" height="71.284px" viewBox="0 0 71.284 71.284" style="enable-background:new 0 0 71.284 71.284;"
	 xml:space="preserve">
<g>
	<g color="white">
		<rect x="48.76" y="55.174" width="20.969" height="6.709" fill="#fff"/>
		<path d="M47.676,48.271c2.381-5.035,14.595-25.571,6.211-39.509C50.535,3.194,44.476,0,37.253,0
			c-7.275,0-13.375,3.24-16.735,8.888c-4.79,8.054-3.491,19.741,3.659,32.909c1.519,2.797,1.556,3.814-11.392,6.798
			c-5.143,1.188-8.281,3.351-9.878,6.808c-1.59,3.441-1.337,7.025-1.337,15.882h40.723v-6.953H8.508
			c-0.002-6.252,0.413-7.711,5.839-8.963c7.411-1.707,14.481-3.224,16.787-8.334c1.143-2.535,0.857-5.414-0.847-8.554
			c-5.85-10.771-7.232-20.262-3.795-26.038c2.105-3.541,5.928-5.491,10.761-5.491c4.794,0,8.584,1.915,10.677,5.392
			c6.334,10.529-4.922,29.461-6.564,33.008L47.676,48.271z" fill="#fff"/>
	</g>
</g>
<g>
</g>
<g>
</g>
<g>
</g>
<g>
</g>
<g>
</g>
<g>
</g>
<g>
</g>
<g>
</g>
<g>
</g>
<g>
</g>
<g>
</g>
<g>
</g>
<g>
</g>
<g>
</g>
<g>
</g>
</svg>
