<svg height="460pt" viewBox="-1 0 400 550" width="460pt" fill="white" xmlns="http://www.w3.org/2000/svg"><path d="m7.515625 460h333.941406c4.417969 0 7.542969-4.078125 7.542969-8.5v-172.628906l106.921875-106.929688c3.148437-3.09375 3.195313-8.152344.105469-11.304687l-42.546875-42.601563c-3.199219-3.121094-8.304688-3.125-11.507813-.007812l-52.972656 52.652344v-81.230469c.085938-2.09375-.679688-4.132813-2.117188-5.660157l-80.835937-81.199218c-1.429687-1.570313-3.425781-2.5039065-5.546875-2.589844h-252.984375c-4.414063 0-7.515625 4.078125-7.515625 8.496094v443.007812c0 4.417969 3.101562 8.496094 7.515625 8.496094zm255.398437-173.386719 24.648438 24.648438-37.027344 12.378906zm39.441407 16.8125-31.609375-31.605469 101.515625-101.289062 31.382812 31.382812zm105.519531-168.425781 31.300781 31.300781-24.234375 24.289063-31.351562-31.359375zm-138.875-107.191406 53.144531 53.191406h-53.144531zm-253-11.808594h237v73.449219c-.09375 2.023437.660156 3.992187 2.089844 5.425781 1.425781 1.4375 3.386718 2.207031 5.410156 2.125h72.5v89.644531l-79.453125 79.5c-.839844.820313-1.464844 1.832031-1.820313 2.949219l-11.28125 33.90625h-172.746093c-4.417969 0-8 3.582031-8 8s3.582031 8 8 8h167.402343l-4.820312 14.601562c-.960938 2.84375-.210938 5.992188 1.929688 8.097657.5625.5625 1.199218 1.300781 1.875 1.300781h-166.386719c-4.417969 0-8 3.582031-8 8s3.582031 8 8 8h213.003906c4.421875 0 8-3.582031 8-8s-3.578125-8-8-8h-38.691406l62.886719-20.847656c1.105468-.363282 2.105468-1 2.902343-1.84375l25.199219-25.402344v149.09375h-317zm0 0"/><path d="m280.703125 383h-213.003906c-4.417969 0-8 3.582031-8 8s3.582031 8 8 8h213.003906c4.421875 0 8-3.582031 8-8s-3.578125-8-8-8zm0 0"/><path d="m67.699219 279h113.003906c4.421875 0 8-3.582031 8-8s-3.578125-8-8-8h-113.003906c-4.417969 0-8 3.582031-8 8s3.582031 8 8 8zm0 0"/></svg>
