<svg id="svg" version="1.1" xmlns="http://www.w3.org/2000/svg" xmlns:xlink="http://www.w3.org/1999/xlink" width="400" height="400" viewBox="0, 138, 400,400"><g id="svgg"><path id="path0" d="M82.080 167.280 C 81.816 167.544,81.600 168.084,81.600 168.480 C 81.600 169.074,81.262 169.200,79.667 169.200 C 78.603 169.200,77.598 169.335,77.433 169.500 C 77.268 169.665,76.923 169.800,76.667 169.800 C 76.410 169.800,76.143 170.295,76.073 170.900 C 75.960 171.889,75.790 172.000,74.399 172.000 C 72.017 172.000,70.800 172.605,70.800 173.790 C 70.800 174.577,70.597 174.800,69.880 174.800 C 68.663 174.800,68.000 175.517,68.000 176.833 C 68.000 177.570,67.749 177.972,67.201 178.116 C 65.683 178.512,65.506 180.162,66.950 180.447 C 68.197 180.694,68.196 180.695,66.700 180.747 L 65.200 180.800 65.240 184.300 C 65.267 186.667,65.383 187.476,65.600 186.800 L 65.920 185.800 65.960 186.949 C 65.996 187.976,66.072 188.040,66.677 187.549 C 67.049 187.247,67.228 187.210,67.074 187.466 C 66.921 187.722,66.981 188.024,67.208 188.136 C 67.434 188.248,67.391 188.288,67.110 188.224 C 66.829 188.160,66.285 188.270,65.900 188.468 C 64.928 188.968,64.820 200.800,65.787 200.800 C 66.144 200.800,66.285 201.035,66.146 201.398 C 66.019 201.726,65.755 201.896,65.558 201.774 C 65.358 201.651,65.200 203.038,65.200 204.915 C 65.200 208.509,65.831 210.467,67.230 211.216 C 67.654 211.443,68.003 212.027,68.006 212.514 C 68.015 213.745,68.422 214.233,69.700 214.546 C 70.387 214.714,70.800 215.082,70.800 215.528 C 70.800 216.729,71.667 217.200,73.880 217.200 C 75.615 217.200,76.008 217.327,76.046 217.900 C 76.154 219.533,76.227 219.740,76.764 219.920 C 77.125 220.041,77.249 219.905,77.110 219.542 C 76.842 218.843,78.237 217.012,78.595 217.591 C 78.734 217.816,78.621 218.000,78.344 218.000 C 77.971 218.000,77.957 218.117,78.289 218.449 C 78.536 218.696,78.642 219.146,78.526 219.449 C 78.368 219.861,78.722 220.000,79.931 220.000 C 81.395 220.000,81.559 220.103,81.673 221.095 C 81.845 222.584,82.996 222.748,93.420 222.777 C 102.336 222.801,102.800 222.709,102.800 220.920 C 102.800 220.280,103.033 220.000,103.567 220.000 C 103.988 220.000,104.424 219.775,104.535 219.500 C 104.696 219.100,104.743 219.100,104.768 219.500 C 104.803 220.043,107.452 220.128,109.200 219.642 C 109.978 219.426,110.200 219.102,110.200 218.182 C 110.200 217.199,110.031 216.993,109.200 216.957 C 108.650 216.933,108.020 216.866,107.800 216.809 C 107.580 216.752,107.310 216.711,107.200 216.719 C 106.713 216.751,106.895 214.419,107.414 213.989 C 108.308 213.247,109.875 213.835,110.097 214.996 C 110.203 215.548,110.112 216.000,109.896 216.000 C 109.679 216.000,109.726 216.270,110.000 216.600 C 110.985 217.787,113.200 217.372,113.200 216.000 C 113.200 215.003,113.361 214.800,114.151 214.800 C 116.876 214.800,118.800 212.764,118.800 209.880 C 118.800 209.493,119.222 209.205,119.900 209.127 C 120.949 209.006,121.009 208.880,121.200 206.416 C 121.381 204.073,121.492 203.811,122.385 203.601 C 123.751 203.282,123.914 202.387,123.960 194.950 C 124.010 186.887,123.860 186.032,122.346 185.729 C 121.228 185.506,121.200 185.438,121.200 182.940 C 121.200 180.416,121.183 180.377,120.000 180.140 C 119.163 179.973,118.800 179.666,118.800 179.126 C 118.800 178.701,118.646 178.448,118.458 178.564 C 118.270 178.681,118.193 178.368,118.289 177.870 C 118.571 176.393,117.235 175.151,115.106 174.911 C 113.365 174.715,113.235 174.619,113.122 173.450 C 113.016 172.362,112.831 172.184,111.700 172.075 C 110.757 171.984,110.400 171.750,110.400 171.224 C 110.400 170.825,110.175 170.313,109.900 170.086 C 109.183 169.497,105.539 169.000,105.684 169.512 C 105.748 169.736,105.620 169.920,105.400 169.920 C 105.180 169.920,105.045 169.758,105.100 169.560 C 105.155 169.362,104.683 169.200,104.050 169.200 C 103.092 169.200,102.860 168.999,102.660 168.000 L 102.420 166.800 92.490 166.800 C 85.300 166.800,82.428 166.932,82.080 167.280 M187.100 167.429 C 186.495 167.757,186.000 168.267,186.000 168.561 C 186.000 168.931,185.135 169.182,183.202 169.372 C 179.334 169.753,178.434 171.806,181.888 172.368 C 183.743 172.669,184.615 174.357,183.494 175.477 C 182.489 176.482,180.800 175.611,180.800 174.089 C 180.800 172.671,180.145 172.000,178.763 172.000 C 177.670 172.000,177.200 172.611,177.200 174.033 C 177.200 174.697,176.902 174.800,174.990 174.800 C 172.696 174.800,171.845 175.595,172.032 177.564 C 172.214 179.483,171.993 180.000,170.990 180.000 C 169.773 180.000,169.200 181.224,169.200 183.826 C 169.200 185.530,169.153 185.600,168.000 185.600 L 166.800 185.600 166.800 194.610 L 166.800 203.620 168.000 203.860 C 169.038 204.068,169.200 204.276,169.200 205.400 C 169.200 208.592,169.559 209.228,171.353 209.210 C 174.601 209.179,174.800 209.212,174.800 209.781 C 174.800 210.095,174.628 210.459,174.417 210.589 C 174.207 210.719,174.136 211.090,174.260 211.413 C 174.509 212.061,174.372 212.118,173.433 211.757 C 173.085 211.624,172.800 211.332,172.800 211.108 C 172.800 210.885,173.099 210.949,173.464 211.251 C 174.069 211.751,174.081 211.723,173.593 210.940 C 172.879 209.794,172.000 210.196,172.000 211.669 C 172.000 213.728,172.595 214.317,174.976 214.614 C 176.952 214.861,177.167 214.985,177.278 215.943 C 177.378 216.812,177.631 217.022,178.700 217.125 C 179.657 217.218,180.000 217.447,180.000 217.997 C 180.000 219.425,181.144 220.061,183.518 219.951 C 185.463 219.861,185.764 219.951,186.046 220.711 C 186.685 222.439,188.647 222.800,197.400 222.800 C 206.204 222.800,207.866 222.490,208.683 220.696 C 209.064 219.862,209.343 219.757,210.860 219.882 C 213.478 220.097,214.327 219.772,214.474 218.499 C 214.579 217.584,214.817 217.379,215.900 217.275 C 217.023 217.166,217.200 216.999,217.200 216.045 C 217.200 214.996,217.326 214.922,219.700 214.570 L 222.200 214.200 222.570 211.700 C 222.924 209.311,222.990 209.200,224.070 209.200 C 225.194 209.200,225.200 209.186,225.200 206.600 C 225.200 204.129,225.247 204.000,226.151 204.000 C 227.920 204.000,228.023 203.433,227.908 194.353 L 227.800 185.807 226.600 185.602 C 225.438 185.402,225.394 185.314,225.200 182.812 C 225.008 180.334,223.099 178.545,222.199 180.001 C 222.097 180.167,221.639 180.401,221.182 180.521 C 220.260 180.762,219.342 179.228,220.114 178.737 C 220.745 178.336,221.673 178.833,221.438 179.446 C 221.268 179.889,221.374 179.898,222.024 179.494 C 222.699 179.074,222.778 178.731,222.553 177.200 C 222.232 175.010,221.966 174.814,219.300 174.806 L 217.200 174.800 217.200 173.400 C 217.200 171.795,215.326 171.373,213.776 172.630 C 213.349 172.976,213.213 173.153,213.473 173.022 C 213.787 172.865,213.936 173.181,213.914 173.957 C 213.852 176.139,210.800 176.612,210.800 174.440 C 210.800 173.351,211.999 171.946,212.734 172.175 C 213.740 172.487,214.486 171.825,214.335 170.755 C 214.216 169.910,213.909 169.759,211.671 169.440 C 209.708 169.161,208.887 168.825,208.002 167.940 L 206.862 166.800 197.531 166.816 C 190.040 166.829,187.983 166.950,187.100 167.429 M292.267 167.067 C 292.120 167.213,292.000 167.742,292.000 168.241 C 292.000 168.973,291.748 169.174,290.700 169.275 C 289.877 169.354,289.440 169.594,289.510 169.930 C 289.570 170.221,289.432 170.344,289.203 170.202 C 288.974 170.061,288.891 169.777,289.017 169.572 C 289.270 169.163,287.669 169.151,285.818 169.548 C 284.991 169.725,284.565 170.102,284.402 170.801 C 284.223 171.569,283.874 171.829,282.898 171.924 C 281.811 172.031,281.591 172.241,281.378 173.378 C 281.144 174.623,281.003 174.723,279.137 174.971 C 277.000 175.254,276.000 176.534,276.000 178.987 C 276.000 179.794,275.802 180.000,275.024 180.000 C 273.774 180.000,273.647 180.237,273.344 183.136 C 273.129 185.190,272.961 185.573,272.194 185.766 C 270.933 186.082,270.812 186.883,270.805 194.926 C 270.800 202.255,271.041 203.600,272.362 203.600 C 272.979 203.600,273.141 204.050,273.373 206.400 C 273.642 209.137,273.674 209.200,274.773 209.200 C 275.819 209.200,275.915 209.338,276.160 211.186 C 276.459 213.437,277.305 214.276,279.659 214.654 C 280.870 214.849,281.157 215.086,281.349 216.045 C 281.542 217.011,281.777 217.200,282.782 217.200 C 283.740 217.200,284.037 217.409,284.243 218.229 C 284.534 219.386,285.935 220.080,287.787 219.983 C 291.301 219.798,292.000 219.959,292.000 220.951 C 292.000 222.784,292.529 222.874,302.519 222.732 C 312.348 222.593,313.200 222.435,313.200 220.751 C 313.200 220.141,313.501 220.000,314.800 220.000 C 316.474 220.000,316.735 219.721,315.900 218.821 C 315.500 218.390,315.500 218.339,315.900 218.565 C 316.175 218.720,316.400 218.657,316.400 218.424 C 316.400 218.191,316.681 218.000,317.024 218.000 C 317.367 218.000,317.536 217.820,317.400 217.600 C 317.264 217.380,317.343 217.200,317.576 217.200 C 318.192 217.200,318.095 217.848,317.371 218.571 C 316.900 219.043,316.875 219.202,317.271 219.206 C 317.662 219.211,317.643 219.314,317.200 219.600 C 316.720 219.910,316.711 219.989,317.156 219.994 C 317.854 220.002,318.770 218.825,318.787 217.900 C 318.798 217.319,319.177 217.200,321.021 217.200 C 323.137 217.200,323.262 217.142,323.667 215.981 C 323.966 215.123,324.421 214.696,325.204 214.539 C 326.045 214.371,326.375 214.024,326.557 213.117 C 326.857 211.613,326.520 211.002,325.744 211.646 C 325.278 212.033,325.043 211.997,324.578 211.467 C 324.259 211.102,324.214 210.982,324.479 211.201 C 325.197 211.796,325.543 211.685,325.419 210.900 C 325.351 210.464,325.024 210.246,324.555 210.321 C 324.031 210.404,324.163 210.195,324.984 209.638 C 325.635 209.196,326.260 208.926,326.372 209.039 C 326.485 209.151,326.312 209.411,325.988 209.616 C 325.497 209.927,325.493 209.989,325.967 209.994 C 326.278 209.997,326.415 210.118,326.270 210.263 C 325.840 210.693,326.809 211.571,327.444 211.328 C 328.591 210.888,329.091 209.043,329.146 205.051 C 329.191 201.799,329.107 201.179,328.667 201.544 C 328.264 201.879,328.133 201.847,328.133 201.416 C 328.133 201.102,328.328 200.879,328.567 200.922 C 328.859 200.975,329.036 198.950,329.110 194.700 C 329.217 188.604,329.194 188.400,328.410 188.400 C 327.965 188.400,327.600 188.150,327.600 187.844 C 327.600 187.539,327.915 187.314,328.300 187.344 C 328.906 187.393,329.018 186.949,329.132 184.045 C 329.258 180.872,329.222 180.701,328.477 180.896 C 328.043 181.009,327.444 180.947,327.144 180.757 C 326.775 180.523,327.021 180.410,327.910 180.406 L 329.221 180.400 328.600 179.200 C 328.259 178.540,327.732 178.000,327.429 178.000 C 327.123 178.000,326.723 177.335,326.527 176.500 C 326.241 175.285,325.973 174.976,325.114 174.876 C 324.319 174.783,323.991 174.467,323.804 173.617 C 323.533 172.384,322.740 172.014,320.350 172.005 C 319.075 172.001,318.872 171.861,318.670 170.852 C 318.414 169.570,317.600 169.214,314.900 169.205 C 313.532 169.201,313.200 169.060,313.200 168.480 C 313.200 166.893,312.602 166.800,302.387 166.800 C 296.967 166.800,292.413 166.920,292.267 167.067 M78.400 169.992 C 78.070 170.200,77.778 170.557,77.750 170.785 C 77.723 171.013,77.663 171.605,77.618 172.100 C 77.574 172.595,77.446 172.774,77.334 172.498 C 77.223 172.221,76.922 172.121,76.666 172.274 C 76.410 172.428,76.447 172.249,76.749 171.877 C 77.051 171.505,77.180 171.200,77.035 171.200 C 76.890 171.200,76.965 170.840,77.200 170.400 C 77.435 169.960,77.937 169.603,78.314 169.606 C 78.902 169.611,78.914 169.667,78.400 169.992 M316.800 170.186 C 316.800 170.508,317.205 170.988,317.699 171.253 C 318.193 171.518,318.392 171.803,318.141 171.886 C 317.580 172.073,315.510 170.223,315.873 169.860 C 316.324 169.410,316.800 169.577,316.800 170.186 M316.628 173.187 C 316.547 175.558,316.287 175.949,315.680 174.616 C 315.398 173.997,315.374 173.540,315.615 173.391 C 315.827 173.260,316.000 172.713,316.000 172.176 C 316.000 171.639,316.157 171.200,316.348 171.200 C 316.540 171.200,316.666 172.094,316.628 173.187 M79.053 173.562 C 79.197 174.475,79.093 174.800,78.657 174.800 C 77.860 174.800,77.635 173.994,78.126 172.898 C 78.614 171.808,78.797 171.939,79.053 173.562 M109.932 173.611 C 110.003 175.418,108.525 176.534,107.351 175.560 C 105.789 174.263,106.967 172.447,109.634 172.036 C 109.763 172.016,109.897 172.725,109.932 173.611 M287.525 173.300 C 287.976 174.983,287.729 175.600,286.606 175.600 C 285.512 175.600,284.622 174.640,284.943 173.805 C 285.070 173.472,285.031 173.200,284.854 173.200 C 284.678 173.200,284.533 172.930,284.533 172.600 C 284.533 171.257,287.141 171.867,287.525 173.300 M222.160 178.494 C 222.791 178.915,221.918 178.862,221.249 178.439 C 220.916 178.228,220.826 177.882,221.022 177.564 C 221.283 177.141,221.383 177.152,221.533 177.620 C 221.636 177.939,221.918 178.332,222.160 178.494 M174.513 177.967 C 174.684 177.985,174.783 178.624,174.732 179.386 C 174.680 180.148,174.556 180.690,174.456 180.589 C 174.356 180.489,174.048 180.594,173.772 180.823 C 173.124 181.361,172.670 180.658,172.586 178.987 C 172.534 177.944,172.660 177.758,173.362 177.838 C 173.823 177.890,174.341 177.948,174.513 177.967 M326.034 178.358 C 326.313 177.918,326.389 177.912,326.394 178.329 C 326.410 179.727,324.784 180.378,323.968 179.300 C 323.518 178.704,323.522 178.675,323.999 179.100 C 324.756 179.775,325.200 179.729,325.200 178.976 C 325.200 178.584,325.015 178.464,324.700 178.653 C 324.413 178.826,324.455 178.639,324.800 178.214 C 325.373 177.508,325.406 177.507,325.541 178.196 C 325.654 178.778,325.749 178.809,326.034 178.358 M69.000 178.400 C 68.864 178.620,68.943 178.800,69.176 178.800 C 69.409 178.800,69.600 178.991,69.600 179.224 C 69.600 179.457,69.420 179.536,69.200 179.400 C 68.980 179.264,68.800 179.243,68.800 179.353 C 68.800 180.101,69.660 179.837,70.127 178.946 L 70.692 177.867 70.646 179.050 C 70.581 180.733,68.666 180.777,68.473 179.100 C 68.402 178.477,68.542 178.000,68.797 178.000 C 69.045 178.000,69.136 178.180,69.000 178.400 M117.251 178.500 C 117.279 178.775,117.344 179.400,117.396 179.890 C 117.452 180.417,117.322 180.675,117.077 180.524 C 116.818 180.364,116.768 180.538,116.941 180.991 C 117.180 181.613,117.130 181.640,116.584 181.187 C 116.010 180.710,116.009 180.627,116.575 180.310 C 116.919 180.118,117.200 179.767,117.200 179.531 C 117.200 179.256,116.984 179.281,116.600 179.600 C 116.107 180.009,116.000 179.978,116.000 179.425 C 116.000 179.055,116.180 178.864,116.400 179.000 C 116.620 179.136,116.800 179.072,116.800 178.857 C 116.800 178.642,116.575 178.376,116.300 178.265 C 116.001 178.144,116.082 178.050,116.500 178.032 C 116.885 178.014,117.223 178.225,117.251 178.500 M278.486 178.338 C 278.192 178.525,278.080 178.991,278.224 179.432 C 278.413 180.009,278.378 180.063,278.081 179.646 C 277.759 179.194,277.604 179.245,277.243 179.920 C 276.609 181.104,276.695 181.380,277.500 180.749 C 278.134 180.251,278.149 180.266,277.651 180.900 C 276.786 182.003,276.272 181.742,276.551 180.343 C 276.793 179.134,277.764 178.033,278.600 178.019 C 278.820 178.015,278.769 178.159,278.486 178.338 M120.406 187.100 C 120.411 187.698,120.469 187.713,120.800 187.200 C 121.112 186.717,121.189 186.781,121.194 187.524 C 121.197 188.039,121.023 188.338,120.800 188.200 C 120.580 188.064,120.400 188.104,120.400 188.289 C 120.400 188.474,119.938 188.664,119.372 188.711 C 118.517 188.781,118.366 188.645,118.473 187.898 C 118.553 187.332,118.858 187.020,119.296 187.055 C 119.678 187.085,119.893 186.950,119.772 186.755 C 119.651 186.560,119.743 186.400,119.976 186.400 C 120.209 186.400,120.403 186.715,120.406 187.100 M274.217 186.772 C 274.091 186.977,274.151 187.246,274.352 187.370 C 274.552 187.494,274.838 187.281,274.987 186.898 C 275.284 186.131,276.400 187.179,276.400 188.225 C 276.400 188.763,273.803 188.754,273.311 188.214 C 273.140 188.026,273.232 188.006,273.516 188.169 C 273.905 188.394,273.968 188.212,273.773 187.434 C 273.605 186.764,273.678 186.400,273.980 186.400 C 274.237 186.400,274.344 186.568,274.217 186.772 M172.393 187.396 C 173.099 187.832,172.837 188.376,171.795 188.637 C 170.635 188.928,169.544 188.212,169.867 187.371 C 170.078 186.819,171.482 186.833,172.393 187.396 M224.433 187.200 C 225.054 187.200,224.839 188.300,224.167 188.557 C 223.337 188.876,223.112 188.858,222.426 188.424 C 221.673 187.948,222.636 186.652,223.497 186.982 C 223.810 187.102,224.231 187.200,224.433 187.200 M121.000 201.300 C 120.964 201.795,120.789 202.140,120.612 202.066 C 120.434 201.992,120.148 202.160,119.975 202.440 C 119.722 202.850,119.538 202.847,119.030 202.425 C 118.010 201.579,118.235 200.675,119.410 200.900 C 119.965 201.006,120.515 200.937,120.633 200.746 C 120.975 200.193,121.071 200.337,121.000 201.300 M172.640 200.865 C 173.148 201.686,171.282 202.858,170.372 202.289 C 169.401 201.683,169.574 201.102,170.830 200.751 C 172.255 200.353,172.326 200.357,172.640 200.865 M224.728 201.799 C 224.498 202.304,224.105 202.672,223.855 202.618 C 221.146 202.037,221.544 200.236,224.273 200.726 C 225.025 200.861,225.088 201.009,224.728 201.799 M274.394 201.304 C 274.401 200.713,276.311 200.786,276.534 201.386 C 276.761 201.998,274.083 203.658,273.747 203.114 C 273.572 202.831,273.664 202.792,274.006 203.004 C 274.393 203.243,274.463 203.151,274.268 202.666 C 273.594 200.991,273.505 200.572,273.956 201.200 C 274.245 201.601,274.390 201.636,274.394 201.304 M277.842 209.560 C 277.819 210.419,277.656 211.033,277.481 210.925 C 277.305 210.817,277.191 210.430,277.227 210.065 C 277.344 208.868,277.195 208.590,276.763 209.200 C 276.386 209.733,276.359 209.733,276.520 209.200 C 276.619 208.870,276.903 208.645,277.150 208.700 C 277.397 208.755,277.600 208.620,277.600 208.400 C 277.600 208.180,277.664 208.000,277.742 208.000 C 277.819 208.000,277.864 208.702,277.842 209.560 M117.404 209.193 C 117.289 209.379,117.382 209.594,117.611 209.670 C 117.880 209.760,117.845 210.058,117.514 210.511 C 117.059 211.133,116.999 211.057,116.988 209.837 C 116.982 209.081,117.120 208.550,117.295 208.659 C 117.470 208.767,117.519 209.007,117.404 209.193 M222.160 209.949 C 222.138 210.197,222.093 210.722,222.060 211.115 C 222.024 211.547,221.646 211.856,221.105 211.897 C 220.613 211.934,220.396 211.838,220.624 211.682 C 220.852 211.527,221.067 210.952,221.101 210.405 C 221.148 209.673,221.071 209.562,220.809 209.986 C 220.613 210.303,220.542 210.705,220.650 210.881 C 220.758 211.056,220.741 211.200,220.611 211.200 C 220.101 211.200,219.703 209.386,220.104 208.890 C 220.582 208.297,222.231 209.147,222.160 209.949 M70.629 209.590 C 70.629 210.025,70.397 210.469,70.114 210.578 C 69.831 210.686,69.600 210.500,69.600 210.164 C 69.600 209.828,69.420 209.664,69.199 209.801 C 68.934 209.964,68.945 210.323,69.231 210.859 C 69.713 211.759,69.497 212.231,68.799 211.800 C 68.550 211.645,68.440 211.273,68.555 210.972 C 68.671 210.672,68.590 210.317,68.376 210.185 C 67.740 209.792,68.427 209.114,69.245 209.328 C 69.660 209.436,70.100 209.362,70.223 209.162 C 70.552 208.630,70.629 208.711,70.629 209.590 M278.760 210.300 C 278.725 211.605,278.682 211.670,278.427 210.800 C 278.266 210.250,278.213 209.575,278.310 209.300 C 278.628 208.394,278.801 208.777,278.760 210.300 M183.915 215.360 C 183.762 216.905,182.755 217.525,181.495 216.851 C 180.293 216.208,180.340 214.950,181.603 213.998 C 182.898 213.021,184.079 213.716,183.915 215.360 M214.199 215.834 C 214.280 216.870,214.154 217.010,213.074 217.090 C 210.934 217.247,210.039 215.504,211.456 213.939 C 212.364 212.935,214.064 214.109,214.199 215.834 M287.620 214.224 C 288.583 215.384,287.630 216.993,285.950 217.042 C 284.555 217.082,284.523 217.050,284.632 215.683 C 284.790 213.687,286.487 212.859,287.620 214.224 M79.017 215.807 C 79.087 216.854,78.989 217.123,78.643 216.835 C 78.105 216.389,77.425 216.725,77.092 217.600 C 76.934 218.015,76.853 217.935,76.832 217.343 C 76.814 216.871,77.089 216.375,77.442 216.239 C 77.794 216.104,77.988 215.747,77.873 215.445 C 77.661 214.894,78.384 213.851,78.734 214.201 C 78.837 214.304,78.965 215.027,79.017 215.807 M316.761 215.447 C 316.427 215.850,316.424 216.000,316.751 216.000 C 316.998 216.000,317.200 216.191,317.200 216.424 C 317.200 216.657,316.989 216.717,316.732 216.558 C 316.417 216.364,316.348 216.487,316.519 216.934 C 316.660 217.300,316.601 217.600,316.387 217.600 C 316.030 217.600,315.838 217.026,315.953 216.300 C 315.979 216.135,315.814 216.000,315.586 216.000 C 315.303 216.000,315.304 215.752,315.592 215.215 C 315.843 214.746,316.255 214.523,316.616 214.662 C 317.082 214.840,317.115 215.020,316.761 215.447 " stroke="none" fill="#fcfcfc" fill-rule="evenodd"></path><path id="path1" d="M77.018 170.581 C 77.058 171.032,76.890 171.660,76.645 171.977 C 76.313 172.407,76.318 172.483,76.666 172.274 C 76.922 172.121,77.223 172.221,77.334 172.498 C 77.446 172.774,77.574 172.595,77.618 172.100 C 77.663 171.605,77.723 171.013,77.750 170.785 C 77.778 170.557,78.070 170.199,78.400 169.989 C 78.861 169.696,78.763 169.626,77.973 169.685 C 77.202 169.743,76.964 169.967,77.018 170.581 M315.873 169.860 C 315.510 170.223,317.580 172.073,318.141 171.886 C 318.392 171.803,318.193 171.518,317.699 171.253 C 317.205 170.988,316.800 170.508,316.800 170.186 C 316.800 169.577,316.324 169.410,315.873 169.860 M316.000 172.176 C 316.000 172.713,315.827 173.260,315.615 173.391 C 315.374 173.540,315.398 173.997,315.680 174.616 C 315.928 175.159,316.227 175.507,316.345 175.388 C 316.713 175.020,316.716 171.200,316.348 171.200 C 316.157 171.200,316.000 171.639,316.000 172.176 M78.126 172.898 C 77.635 173.994,77.860 174.800,78.657 174.800 C 79.093 174.800,79.197 174.475,79.053 173.562 C 78.797 171.939,78.614 171.808,78.126 172.898 M108.100 172.448 C 106.671 172.860,106.243 174.640,107.351 175.560 C 108.525 176.534,110.003 175.418,109.932 173.611 C 109.897 172.725,109.763 172.016,109.634 172.036 C 109.505 172.056,108.815 172.241,108.100 172.448 M180.335 172.495 C 180.591 172.751,180.800 173.468,180.800 174.089 C 180.800 175.495,182.396 176.433,183.388 175.610 C 184.816 174.425,183.756 172.610,181.435 172.263 C 180.244 172.085,179.981 172.141,180.335 172.495 M211.376 172.956 C 210.142 174.718,211.225 176.550,212.954 175.625 C 213.931 175.102,214.443 172.537,213.473 173.022 C 213.213 173.153,213.308 173.006,213.685 172.696 C 214.307 172.185,214.259 172.133,213.161 172.133 C 212.394 172.133,211.741 172.434,211.376 172.956 M284.533 172.600 C 284.533 172.930,284.678 173.200,284.854 173.200 C 285.031 173.200,285.070 173.472,284.943 173.805 C 284.622 174.640,285.512 175.600,286.606 175.600 C 287.729 175.600,287.976 174.983,287.525 173.300 C 287.141 171.867,284.533 171.257,284.533 172.600 M221.022 177.564 C 220.826 177.882,220.916 178.228,221.249 178.439 C 221.918 178.862,222.791 178.915,222.160 178.494 C 221.918 178.332,221.636 177.939,221.533 177.620 C 221.383 177.152,221.283 177.141,221.022 177.564 M172.177 178.038 C 172.072 178.207,172.173 178.460,172.400 178.600 C 172.627 178.740,172.712 179.019,172.588 179.219 C 172.173 179.891,173.200 181.298,173.765 180.829 C 174.045 180.597,174.356 180.489,174.456 180.589 C 174.556 180.690,174.680 180.148,174.732 179.386 C 174.783 178.624,174.684 177.985,174.513 177.967 C 174.341 177.948,173.787 177.888,173.283 177.832 C 172.779 177.777,172.281 177.869,172.177 178.038 M324.800 178.214 C 324.455 178.639,324.413 178.826,324.700 178.653 C 325.015 178.464,325.200 178.584,325.200 178.976 C 325.200 179.729,324.756 179.775,323.999 179.100 C 323.522 178.675,323.518 178.704,323.968 179.300 C 324.784 180.378,326.410 179.727,326.394 178.329 C 326.389 177.912,326.313 177.918,326.034 178.358 C 325.749 178.809,325.654 178.778,325.541 178.196 C 325.406 177.507,325.373 177.508,324.800 178.214 M68.473 179.100 C 68.666 180.777,70.581 180.733,70.646 179.050 L 70.692 177.867 70.127 178.946 C 69.660 179.837,68.800 180.101,68.800 179.353 C 68.800 179.243,68.980 179.264,69.200 179.400 C 69.420 179.536,69.600 179.457,69.600 179.224 C 69.600 178.991,69.409 178.800,69.176 178.800 C 68.943 178.800,68.864 178.620,69.000 178.400 C 69.136 178.180,69.045 178.000,68.797 178.000 C 68.542 178.000,68.402 178.477,68.473 179.100 M116.300 178.265 C 116.575 178.376,116.800 178.642,116.800 178.857 C 116.800 179.072,116.620 179.136,116.400 179.000 C 116.180 178.864,116.000 179.055,116.000 179.425 C 116.000 179.978,116.107 180.009,116.600 179.600 C 116.984 179.281,117.200 179.256,117.200 179.531 C 117.200 179.767,116.919 180.118,116.575 180.310 C 116.009 180.627,116.010 180.710,116.584 181.187 C 117.130 181.640,117.180 181.613,116.941 180.991 C 116.768 180.538,116.818 180.364,117.077 180.524 C 117.322 180.675,117.452 180.417,117.396 179.890 C 117.344 179.400,117.279 178.775,117.251 178.500 C 117.223 178.225,116.885 178.014,116.500 178.032 C 116.082 178.050,116.001 178.144,116.300 178.265 M277.501 178.556 C 276.714 179.154,276.071 181.600,276.701 181.600 C 276.922 181.600,277.349 181.285,277.651 180.900 C 278.149 180.266,278.134 180.251,277.500 180.749 C 276.695 181.380,276.609 181.104,277.243 179.920 C 277.604 179.245,277.759 179.194,278.081 179.646 C 278.378 180.063,278.413 180.009,278.224 179.432 C 278.080 178.991,278.192 178.525,278.486 178.338 C 278.769 178.159,278.820 178.015,278.600 178.019 C 278.380 178.022,277.886 178.264,277.501 178.556 M220.114 178.737 C 219.865 178.895,219.830 179.346,220.026 179.869 C 220.383 180.822,221.599 180.766,222.436 179.757 C 223.010 179.065,222.345 179.016,221.656 179.700 C 221.253 180.101,221.202 180.071,221.399 179.552 C 221.667 178.849,220.801 178.300,220.114 178.737 M66.100 180.676 C 66.485 180.776,67.115 180.776,67.500 180.676 C 67.885 180.575,67.570 180.493,66.800 180.493 C 66.030 180.493,65.715 180.575,66.100 180.676 M327.144 180.757 C 327.641 181.072,329.200 180.917,329.200 180.553 C 329.200 180.469,328.615 180.403,327.900 180.406 C 327.016 180.410,326.774 180.523,327.144 180.757 M65.654 186.400 C 65.619 186.730,65.475 187.425,65.336 187.945 C 65.114 188.774,65.177 188.842,65.841 188.499 C 66.259 188.284,66.829 188.160,67.110 188.224 C 67.391 188.288,67.434 188.248,67.208 188.136 C 66.981 188.024,66.921 187.722,67.074 187.466 C 67.241 187.187,67.093 187.211,66.706 187.525 C 66.141 187.982,66.036 187.905,65.889 186.925 C 65.796 186.306,65.690 186.070,65.654 186.400 M119.772 186.755 C 119.893 186.950,119.678 187.085,119.296 187.055 C 118.858 187.020,118.553 187.332,118.473 187.898 C 118.366 188.645,118.517 188.781,119.372 188.711 C 119.938 188.664,120.400 188.474,120.400 188.289 C 120.400 188.104,120.580 188.064,120.800 188.200 C 121.023 188.338,121.197 188.039,121.194 187.524 C 121.189 186.781,121.112 186.717,120.800 187.200 C 120.469 187.713,120.411 187.698,120.406 187.100 C 120.403 186.715,120.209 186.400,119.976 186.400 C 119.743 186.400,119.651 186.560,119.772 186.755 M273.773 187.434 C 273.968 188.212,273.905 188.394,273.516 188.169 C 273.232 188.006,273.140 188.026,273.311 188.214 C 273.803 188.754,276.400 188.763,276.400 188.225 C 276.400 187.179,275.284 186.131,274.987 186.898 C 274.838 187.281,274.552 187.494,274.352 187.370 C 274.151 187.246,274.091 186.977,274.217 186.772 C 274.344 186.568,274.237 186.400,273.980 186.400 C 273.678 186.400,273.605 186.764,273.773 187.434 M169.867 187.371 C 169.544 188.212,170.635 188.928,171.795 188.637 C 173.423 188.229,173.014 187.331,171.036 186.972 C 170.454 186.867,170.001 187.021,169.867 187.371 M222.390 187.412 C 221.601 188.363,222.748 189.102,224.167 188.557 C 224.839 188.300,225.054 187.200,224.433 187.200 C 224.231 187.200,223.810 187.102,223.497 186.982 C 223.184 186.862,222.686 187.056,222.390 187.412 M327.600 187.886 C 327.600 188.169,327.960 188.400,328.400 188.400 C 328.840 188.400,329.200 188.169,329.200 187.886 C 329.200 187.603,328.840 187.371,328.400 187.371 C 327.960 187.371,327.600 187.603,327.600 187.886 M120.633 200.746 C 120.515 200.937,119.965 201.006,119.410 200.900 C 118.235 200.675,118.010 201.579,119.030 202.425 C 119.538 202.847,119.722 202.850,119.975 202.440 C 120.148 202.160,120.434 201.992,120.612 202.066 C 120.789 202.140,120.964 201.795,121.000 201.300 C 121.071 200.337,120.975 200.193,120.633 200.746 M170.830 200.751 C 169.574 201.102,169.401 201.683,170.372 202.289 C 171.282 202.858,173.148 201.686,172.640 200.865 C 172.326 200.357,172.255 200.353,170.830 200.751 M222.700 200.714 C 221.315 201.000,222.063 202.234,223.855 202.618 C 224.105 202.672,224.498 202.304,224.728 201.799 C 225.172 200.824,224.335 200.376,222.700 200.714 M65.200 201.176 C 65.200 201.847,65.909 202.013,66.146 201.398 C 66.285 201.035,66.144 200.800,65.787 200.800 C 65.464 200.800,65.200 200.969,65.200 201.176 M273.762 201.300 C 273.893 201.685,274.121 202.300,274.268 202.666 C 274.463 203.151,274.393 203.243,274.006 203.004 C 273.664 202.792,273.572 202.831,273.747 203.114 C 274.083 203.658,276.761 201.998,276.534 201.386 C 276.311 200.786,274.401 200.713,274.394 201.304 C 274.390 201.636,274.245 201.601,273.956 201.200 C 273.593 200.695,273.562 200.711,273.762 201.300 M277.600 208.400 C 277.600 208.620,277.397 208.755,277.150 208.700 C 276.903 208.645,276.619 208.870,276.520 209.200 C 276.359 209.733,276.386 209.733,276.763 209.200 C 277.195 208.590,277.344 208.868,277.227 210.065 C 277.191 210.430,277.305 210.817,277.481 210.925 C 277.656 211.033,277.819 210.419,277.842 209.560 C 277.864 208.702,277.819 208.000,277.742 208.000 C 277.664 208.000,277.600 208.180,277.600 208.400 M116.988 209.837 C 116.999 211.057,117.059 211.133,117.514 210.511 C 117.845 210.058,117.880 209.760,117.611 209.670 C 117.382 209.594,117.289 209.379,117.404 209.193 C 117.519 209.007,117.470 208.767,117.295 208.659 C 117.120 208.550,116.982 209.081,116.988 209.837 M220.104 208.890 C 219.703 209.386,220.101 211.200,220.611 211.200 C 220.741 211.200,220.758 211.056,220.650 210.881 C 220.542 210.705,220.613 210.303,220.809 209.986 C 221.071 209.562,221.148 209.673,221.101 210.405 C 221.067 210.952,220.852 211.527,220.624 211.682 C 220.396 211.838,220.613 211.934,221.105 211.897 C 221.646 211.856,222.024 211.547,222.060 211.115 C 222.093 210.722,222.138 210.197,222.160 209.949 C 222.231 209.147,220.582 208.297,220.104 208.890 M70.223 209.162 C 70.100 209.362,69.660 209.436,69.245 209.328 C 68.427 209.114,67.740 209.792,68.376 210.185 C 68.590 210.317,68.671 210.672,68.555 210.972 C 68.440 211.273,68.550 211.645,68.799 211.800 C 69.497 212.231,69.713 211.759,69.231 210.859 C 68.945 210.323,68.934 209.964,69.199 209.801 C 69.420 209.664,69.600 209.828,69.600 210.164 C 69.600 210.500,69.831 210.686,70.114 210.578 C 70.397 210.469,70.629 210.025,70.629 209.590 C 70.629 208.711,70.552 208.630,70.223 209.162 M172.171 209.638 C 172.171 210.143,172.369 210.344,172.730 210.205 C 173.123 210.055,173.212 210.191,173.031 210.663 C 172.888 211.037,173.002 211.481,173.286 211.662 C 174.083 212.167,174.508 212.059,174.260 211.413 C 174.136 211.090,174.207 210.719,174.417 210.589 C 175.137 210.145,174.843 209.095,174.057 209.301 C 173.648 209.408,173.057 209.352,172.743 209.176 C 172.334 208.947,172.171 209.078,172.171 209.638 M278.310 209.300 C 278.213 209.575,278.266 210.250,278.427 210.800 C 278.682 211.670,278.725 211.605,278.760 210.300 C 278.801 208.777,278.628 208.394,278.310 209.300 M324.984 209.638 C 324.163 210.195,324.031 210.404,324.555 210.321 C 325.024 210.246,325.351 210.464,325.419 210.900 C 325.543 211.685,325.197 211.796,324.479 211.201 C 324.214 210.982,324.259 211.102,324.578 211.467 C 325.028 211.981,325.286 212.027,325.717 211.669 C 326.023 211.415,326.431 211.340,326.624 211.503 C 326.816 211.667,326.756 211.513,326.490 211.163 C 326.224 210.813,326.125 210.408,326.270 210.263 C 326.415 210.118,326.278 209.997,325.967 209.994 C 325.493 209.989,325.497 209.927,325.988 209.616 C 326.312 209.411,326.485 209.151,326.372 209.039 C 326.260 208.926,325.635 209.196,324.984 209.638 M181.603 213.998 C 180.340 214.950,180.293 216.208,181.495 216.851 C 182.755 217.525,183.762 216.905,183.915 215.360 C 184.079 213.716,182.898 213.021,181.603 213.998 M211.456 213.939 C 210.039 215.504,210.934 217.247,213.074 217.090 C 214.154 217.010,214.280 216.870,214.199 215.834 C 214.064 214.109,212.364 212.935,211.456 213.939 M107.284 214.100 C 106.878 214.591,106.808 216.746,107.200 216.719 C 107.310 216.712,107.535 216.749,107.700 216.803 C 108.804 217.161,110.296 216.957,109.917 216.500 C 109.634 216.160,109.633 216.000,109.914 216.000 C 110.421 216.000,110.035 214.311,109.435 213.906 C 108.765 213.454,107.743 213.546,107.284 214.100 M285.271 213.947 C 284.981 214.132,284.693 214.913,284.632 215.683 C 284.481 217.585,287.103 217.787,287.759 215.924 C 288.369 214.190,286.825 212.963,285.271 213.947 M78.105 214.455 C 77.861 214.699,77.757 215.144,77.873 215.445 C 77.988 215.747,77.794 216.104,77.442 216.239 C 77.089 216.375,76.814 216.871,76.832 217.343 C 76.853 217.935,76.934 218.015,77.092 217.600 C 77.425 216.725,78.105 216.389,78.643 216.835 C 78.989 217.123,79.087 216.854,79.017 215.807 C 78.905 214.143,78.708 213.852,78.105 214.455 M315.592 215.215 C 315.304 215.752,315.303 216.000,315.586 216.000 C 315.814 216.000,315.979 216.135,315.953 216.300 C 315.838 217.026,316.030 217.600,316.387 217.600 C 316.601 217.600,316.660 217.300,316.519 216.934 C 316.348 216.487,316.417 216.364,316.732 216.558 C 316.989 216.717,317.200 216.657,317.200 216.424 C 317.200 216.191,316.998 216.000,316.751 216.000 C 316.424 216.000,316.427 215.850,316.761 215.447 C 317.115 215.020,317.082 214.840,316.616 214.662 C 316.255 214.523,315.843 214.746,315.592 215.215 M77.534 218.172 C 77.059 218.805,76.983 219.225,77.271 219.631 C 77.594 220.086,77.630 220.060,77.450 219.500 C 77.326 219.115,77.399 218.800,77.613 218.800 C 77.826 218.800,78.003 219.115,78.006 219.500 C 78.011 220.086,78.073 220.104,78.383 219.613 C 78.614 219.248,78.606 218.848,78.360 218.552 C 78.095 218.232,78.128 218.024,78.464 217.912 C 78.744 217.819,78.795 217.645,78.580 217.514 C 78.371 217.387,77.900 217.683,77.534 218.172 M317.400 217.600 C 317.536 217.820,317.367 218.000,317.024 218.000 C 316.681 218.000,316.400 218.191,316.400 218.424 C 316.400 218.657,316.207 218.728,315.970 218.582 C 315.727 218.431,315.758 218.663,316.042 219.118 C 316.339 219.594,316.790 219.825,317.151 219.687 C 317.553 219.533,317.598 219.399,317.283 219.294 C 316.942 219.181,316.976 218.967,317.404 218.539 C 318.099 217.844,318.182 217.200,317.576 217.200 C 317.343 217.200,317.264 217.380,317.400 217.600 " stroke="none" fill="#f4f4f4" fill-rule="evenodd"></path><path id="path2" d="" stroke="none" fill="#fc100f8" fill-rule="evenodd"></path><path id="path3" d="" stroke="none" fill="#fc100f8" fill-rule="evenodd"></path><path id="path4" d="" stroke="none" fill="#fc100f8" fill-rule="evenodd"></path><path id="path5" d="" stroke="none" fill="#fc100f8" fill-rule="evenodd"></path><path id="path6" d="" stroke="none" fill="#fc100f8" fill-rule="evenodd"></path><path id="path7" d="" stroke="none" fill="#fc100f8" fill-rule="evenodd"></path></g></svg>
