<?xml version="1.0" standalone="no"?>
<!DOCTYPE svg PUBLIC "-//W3C//DTD SVG 20010904//EN"
 "http://www.w3.org/TR/2001/REC-SVG-20010904/DTD/svg10.dtd">
<svg version="1.0" xmlns="http://www.w3.org/2000/svg"
 width="300.000000pt" height="300.000000pt" viewBox="0 0 300.000000 300.000000"
 preserveAspectRatio="xMidYMid meet">
<metadata>
Created by potrace 1.10, written by Peter Selinger 2001-2011
</metadata>
<g transform="translate(0.000000,300.000000) scale(0.100000,-0.100000)"
fill="#ffffff" stroke="none">
<path d="M440 2993 c-41 -15 -40 11 -40 -1195 l0 -1158 -173 0 c-277 0 -278 5
80 -351 153 -152 287 -279 297 -283 10 -4 28 0 40 7 12 8 141 135 289 282 218
218 267 272 267 294 0 48 -11 51 -197 51 l-173 0 0 1164 c0 919 -3 1166 -12
1174 -7 5 -23 13 -36 17 -23 7 -23 6 -8 -24 14 -27 16 -153 16 -1174 0 -1143
0 -1144 21 -1171 l20 -26 160 0 c145 0 159 -2 159 -18 0 -15 -516 -542 -531
-542 -12 0 -534 531 -534 543 0 9 44 13 155 15 142 2 156 4 177 24 l23 21 0
1146 c1 975 3 1150 15 1171 22 39 20 45 -15 33z"/>
<path d="M1503 2990 c-30 -12 -35 -48 -31 -234 3 -143 5 -159 23 -172 30 -22
1451 -16 1465 6 11 18 13 370 2 386 -4 6 -17 14 -29 18 -17 5 -23 3 -23 -8 0
-8 5 -18 10 -21 15 -9 13 -328 -2 -343 -14 -14 -1364 -17 -1386 -3 -10 6 -12
47 -10 177 2 93 7 177 12 187 9 19 2 20 -31 7z"/>
<path d="M1486 2118 c-13 -18 -16 -54 -16 -189 0 -144 2 -170 18 -188 l17 -22
558 0 c415 0 562 3 573 12 19 15 21 378 2 397 -9 9 -150 12 -574 12 l-563 0
-15 -22z m1113 -32 c8 -9 11 -63 9 -167 l-3 -154 -540 0 -540 0 -3 155 c-1 85
0 160 2 167 8 20 1059 19 1075 -1z"/>
<path d="M1510 1278 c-34 -13 -40 -43 -40 -210 0 -132 3 -168 16 -186 l15 -22
399 0 c349 0 401 2 414 16 23 22 24 375 1 394 -11 9 -114 12 -400 13 -213 1
-395 -1 -405 -5z m774 -54 c3 -9 6 -80 6 -159 0 -108 -3 -145 -14 -154 -9 -8
-118 -11 -382 -9 l-369 3 -3 155 c-1 85 0 160 2 167 4 10 83 13 380 13 332 0
375 -2 380 -16z"/>
<path d="M1494 416 c-17 -13 -19 -30 -22 -172 -4 -192 0 -222 35 -235 14 -5
27 -8 29 -6 2 1 -2 18 -9 38 -8 23 -11 86 -9 186 3 146 4 151 25 157 39 10
387 7 408 -4 18 -10 19 -23 19 -166 0 -121 -3 -162 -16 -185 -15 -30 -15 -31
8 -24 47 15 48 17 48 211 0 178 -1 183 -22 198 -32 22 -464 24 -494 2z"/>
</g>
</svg>
