<svg height="511pt" viewBox="0 -26 511.82388 511" width="511pt" xmlns="http://www.w3.org/2000/svg">
<path d="M 439.2 459.4 h -366.6 c -25.2 0 -48.5 -13 -61.8 -34.4 c -13.2 -21.4 -14.4 -48.1 -3.2 -70.6 l 183.3 -313.8 c 12.3 -24.6 37.4 -40.1 64.9 -40.1 s 52.6 15.5 64.9 40.1 l 183.3 313.8 c 11.3 22.5 10.1 49.2 -3.2 70.6 c -13.2 21.4 -36.6 34.4 -61.8 34.4 z m 0 0" fill="#f0c419"/>
<path d="M 439.3 459.4 h -183.3 v -459 c 27.6 -0.2 52.8 15.4 65 40.2 l 183.3 313.8 c 11.3 22.5 10.1 49.2 -3.1 70.6 c -13.2 21.4 -36.6 34.4 -61.7 34.4 z m 0 0" fill="#f29c1f"/>
<path d="M 291.2 380 c 0 19.5 -15.8 35.3 -35.3 35.3 s -35.3 -15.8 -35.3 -35.3 c 0 -19.5 15.8 -35.3 35.3 -35.3 s 35.3 15.8 35.3 35.3 z m 0 0" fill="#35495e"/>
<path d="M 291.2 380 c 0 9.4 -3.7 18.3 -10.3 25 c -6.6 6.6 -15.6 10.3 -25 10.3 v -70.6 c 9.4 0 18.3 3.7 25 10.3 c 6.6 6.6 10.3 15.6 10.3 25 z m 0 0" fill="#2c3e50"/>
<path d="M 255.9 71 c 19.5 0 35.3 15.8 35.3 35.3 v 167.7 c 0 19.5 -15.8 35.3 -35.3 35.3 s -35.3 -15.8 -35.3 -35.3 v -167.7 c 0 -19.5 15.8 -35.3 35.3 -35.3 z m 0 0" fill="#35495e"/>
<path d="M 291.2 106.3 v 167.7 c 0 9.4 -3.7 18.3 -10.3 25 c -6.6 6.6 -15.6 10.3 -25 10.3 v -238.3 c 9.4 0 18.4 3.7 25 10.3 c 6.6 6.6 10.3 15.6 10.3 25 z m 0 0" fill="#2c3e50"/>
</svg>