<svg height="100%" width="100%" id="svg" viewBox="0 -350 1440 700" xmlns="http://www.w3.org/2000/svg" class="transition duration-300 ease-in-out delay-150"><defs><linearGradient id="gradient"><stop offset="500%" stop-color="#32237688"></stop><stop offset="95%" stop-color="#32237688"></stop></linearGradient></defs><path d="M 0,400 C 0,400 0,133 0,133 C 75.29418262150222,115.09480854197349 150.58836524300443,97.18961708394697 210,111 C 269.41163475699557,124.81038291605303 312.9407216494845,170.33634020618555 372,176 C 431.0592783505155,181.66365979381445 505.6487481590574,147.46502209131074 565,141 C 624.3512518409426,134.53497790868926 668.4642857142857,155.80357142857144 729,155 C 789.5357142857143,154.19642857142856 866.4941089837998,131.32069219440353 928,120 C 989.5058910162002,108.67930780559647 1035.5592783505153,108.91365979381445 1086,120 C 1136.4407216494847,131.08634020618555 1191.2687776141386,153.02466863033874 1251,157 C 1310.7312223858614,160.97533136966126 1375.3656111929308,146.98766568483063 1440,133 C 1440,133 1440,400 1440,400 Z" stroke="none" stroke-width="0" fill="url(#gradient)" class="transition-all duration-300 ease-in-out delay-150"></path><defs><linearGradient id="gradient"><stop offset="5%" stop-color="#322376ff"></stop><stop offset="95%" stop-color="#322376ff"></stop></linearGradient></defs><path d="M 0,400 C 0,400 0,266 0,266 C 70.95397643593519,236.71391752577318 141.90795287187038,207.4278350515464 198,219 C 254.09204712812962,230.5721649484536 295.32216494845363,283.00257731958766 343,287 C 390.67783505154637,290.99742268041234 444.8033873343152,246.56185567010309 512,236 C 579.1966126656848,225.43814432989691 659.4642857142858,248.75 716,266 C 772.5357142857142,283.25 805.3394698085419,294.4381443298969 868,286 C 930.6605301914581,277.5618556701031 1023.1778350515463,249.4974226804124 1098,254 C 1172.8221649484537,258.5025773195876 1229.9491899852724,295.57216494845363 1284,303 C 1338.0508100147276,310.42783505154637 1389.0254050073638,288.2139175257732 1440,266 C 1440,266 1440,400 1440,400 Z" stroke="none" stroke-width="0" fill="url(#gradient)" class="transition-all duration-300 ease-in-out delay-150"></path></svg>