<svg id="visual" viewBox="0 0 960 540" width="960" height="540" xmlns="http://www.w3.org/2000/svg" xmlns:xlink="http://www.w3.org/1999/xlink" version="1.1">
<path d="M0 419L10 419C20 419 40 419 60 418C80 417 100 415 120 417.7C140 420.3 160 427.7 180 429.8C200 432 220 429 240 427.7C260 426.3 280 426.7 300 425C320 
423.3 340 419.7 360 420.5C380 421.3 400 426.7 420 428.3C440 430 460 428 480 424.2C500 420.3 520 414.7 540 415C560 415.3 580 421.7 600 421.5C620 421.3 640 414.7 660 
411C680 407.3 700 406.7 720 409.8C740 413 760 420 780 424.8C800 429.7 820 432.3 840 432.2C860 432 880 429 900 425.3C920 421.7 940 417.3 950 415.2L960 413L960 541L950 
541C940 541 920 541 900 541C880 541 860 541 840 541C820 541 800 541 780 541C760 541 740 541 720 541C700 541 680 541 660 541C640 541 620 541 600 541C580 541 560 541 540 
541C520 541 500 541 480 541C460 541 440 541 420 541C400 541 380 541 360 541C340 541 320 541 300 541C280 541 260 541 240 541C220 541 200 541 180 541C160 541 140 541 120 
541C100 541 80 541 60 541C40 541 20 541 10 541L0 541Z" fill="#0b194a" class="wave1"></path>

<path d="M0 455L10 451.2C20 447.3 40 439.7 60 437C80 434.3 100 436.7 120 440.5C140 444.3 160 449.7 180 451.3C200 453 220 451 240 451C260 451 280 453 300 453.3C320 
453.7 340 452.3 360 449.8C380 447.3 400 443.7 420 443.5C440 443.3 460 446.7 480 448C500 449.3 520 448.7 540 449.5C560 450.3 580 452.7 600 450.7C620 448.7 640 442.3
 660 442.7C680 443 700 450 720 451.2C740 452.3 760 447.7 780 443.5C800 439.3 820 435.7 840 435.3C860 435 880 438 900 441.7C920 445.3 940 449.7 950 451.8L960 454L960
  541L950 541C940 541 920 541 900 541C880 541 860 541 840 541C820 541 800 541 780 541C760 541 740 541 720 541C700 541 680 541 660 541C640 541 620 541 600 541C580 541 
  560 541 540 541C520 541 500 541 480 541C460 541 440 541 420 541C400 541 380 541 360 541C340 541 320 541 300 541C280 541 260 541 240 541C220 541 200 541 180 541C160 541 
  140 541 120 541C100 541 80 541 60 541C40 541 20 541 10 541L0 541Z" fill="#0d1e58" class="wave2"></path>

<path d="M0 462L10 462.3C20 462.7 40 463.3 60 464.3C80 465.3 100 466.7 120 465.8C140 465 160 462 180 459.7C200 457.3 220 455.7 240 457.3C260 459 280 464 300 467.3C320 470.7 
340 472.3 360 472C380 471.7 400 469.3 420 470.3C440 471.3 460 475.7 480 475.5C500 475.3 520 470.7 540 470.3C560 470 580 474 600 475.2C620 476.3 640 474.7 660 475C680 475.3 700 
477.7 720 478.3C740 479 760 478 780 476C800 474 820 471 840 468C860 465 880 462 900 462.5C920 463 940 467 950 469L960 471L960 541L950 541C940 541 920 541 900 541C880 541 860 541 
840 541C820 541 800 541 780 541C760 541 740 541 720 541C700 541 680 541 660 541C640 541 620 541 600 541C580 541 560 541 540 541C520 541 500 541 480 541C460 541 440 541 420 541C400
 541 380 541 360 541C340 541 320 541 300 541C280 541 260 541 240 541C220 541 200 541 180 541C160 541 140 541 120 541C100 541 80 541 60 541C40 541 20 541 10 541L0 541Z" 
 fill="#102366" class="wave3"></path>
 
<path d="M0 478L10 481.7C20 485.3 40 492.7 60 495.7C80 498.7 100 497.3 120 494.3C140 491.3 160 486.7 180 486C200 485.3 220 488.7 240 488.7C260 488.7 280 485.3 300 486.7C320 
488 340 494 360 496.7C380 499.3 400 498.7 420 497.8C440 497 460 496 480 493.2C500 490.3 520 485.7 540 485.5C560 485.3 580 489.7 600 489.7C620 489.7 640 485.3 660 485.2C680 485 
700 489 720 492C740 495 760 497 780 494.5C800 492 820 485 840 481.5C860 478 880 478 900 481.2C920 484.3 940 490.7 950 493.8L960 497L960 541L950 541C940 541 920 541 900 541C880
 541 860 541 840 541C820 541 800 541 780 541C760 541 740 541 720 541C700 541 680 541 660 541C640 541 620 541 600 541C580 541 560 541 540 541C520 541 500 541 480 541C460 541 440
  541 420 541C400 541 380 541 360 541C340 541 320 541 300 541C280 541 260 541 240 541C220 541 200 541 180 541C160 541 140 541 120 541C100 541 80 541 60 541C40 541 20 541 10 541L0
   541Z" fill="#132874" class="wave4"></path>

<path d="M0 507L10 508.2C20 509.3 40 511.7 60 512.2C80 512.7 100 511.3 120 509.3C140 507.3 160 504.7 180 506.5C200 508.3 220 514.7 240 516.8C260 519 280 517 300 515.3C320 513.7 
340 512.3 360 510.7C380 509 400 507 420 505.5C440 504 460 503 480 502.3C500 501.7 520 501.3 540 502.5C560 503.7 580 506.3 600 509.5C620 512.7 640 516.3 660 516.7C680 517 700 514
 720 513.5C740 513 760 515 780 516.5C800 518 820 519 840 517.3C860 515.7 880 511.3 900 511.2C920 511 940 515 950 517L960 519L960 541L950 541C940 541 920 541 900 541C880 541 860
  541 840 541C820 541 800 541 780 541C760 541 740 541 720 541C700 541 680 541 660 541C640 541 620 541 600 541C580 541 560 541 540 541C520 541 500 541 480 541C460 541 440 541 420
   541C400 541 380 541 360 541C340 541 320 541 300 541C280 541 260 541 240 541C220 541 200 541 180 541C160 541 140 541 120 541C100 541 80 541 60 541C40 541 20 541 10 541L0 541Z" 
   fill="#172e83" class="wave5"></path>
<!--    
    <style>
        @keyframes float1 {
            0%{
                transform: rotate(-1turn) scale(0.1) translate(4150px, 1275px)
            }
            100% {
                transform:rotate(-1turn) scale(0.1) translate(4150px, 1275px) rotate(1turn);
            }
        }
        
        .wave1 {
              animation: float1 60s infinite linear; 
        }

        @keyframes float2 {
            0%{
                transform: translate(0, 0px);
            }
            50%{transform: translate(0px, 0px)}
            100%{transform: translate(0, 0px)}
        }
        
        .wave1, .wave2, .wave3, .wave4, .wave5 {
            animation: float2 4s infinite;
        }
    </style> -->
</svg>