<?xml version="1.0" standalone="no"?>
<!DOCTYPE svg PUBLIC "-//W3C//DTD SVG 20010904//EN"
 "http://www.w3.org/TR/2001/REC-SVG-20010904/DTD/svg10.dtd">
<svg version="1.0" xmlns="http://www.w3.org/2000/svg"
 width="300.000000pt" height="398.000000pt" viewBox="0 0 300.000000 398.000000"
 preserveAspectRatio="xMidYMid meet">
<metadata>
Created by potrace 1.10, written by Peter Selinger 2001-2011
</metadata>
<g transform="translate(0.000000,398.000000) scale(0.050000,-0.050000)"
fill="#ffffff" stroke="none">
<path d="M1495 5904 l-1495 -1496 0 -109 0 -109 1505 1506 1505 1505 1495
-1497 1495 -1497 0 101 0 102 -1495 1495 c-822 822 -1500 1495 -1505 1495 -6
0 -683 -673 -1505 -1496z"/>
<path d="M1000 4416 c0 -4 -3 -197 -5 -431 l-5 -425 85 0 85 0 0 183 0 182
170 -9 170 -9 0 74 0 75 -170 -11 -170 -11 0 112 0 113 204 5 203 6 2 70 1 70
-285 6 c-157 3 -285 3 -285 0z"/>
<path d="M1798 4412 c-4 -5 -5 -198 -2 -430 l6 -422 79 0 79 0 0 430 0 430
-77 0 c-42 0 -80 -4 -85 -8z"/>
<path d="M2260 3990 l0 -430 79 0 80 0 5 272 6 271 210 -270 c202 -261 213
-271 285 -272 l75 -1 0 430 0 430 -93 0 -93 0 10 -280 c11 -291 4 -317 -55
-225 -141 220 -395 505 -451 505 l-58 0 0 -430z"/>
<path d="M3280 3993 l0 -433 205 0 c402 1 596 204 515 541 -53 221 -178 301
-494 315 l-226 10 0 -433z m495 201 c79 -78 82 -322 6 -403 -57 -61 -164 -97
-257 -88 l-66 7 0 270 c0 149 0 275 1 280 4 39 266 -15 316 -66z"/>
<path d="M4260 3990 l0 -430 93 0 92 0 -13 138 c-16 156 -12 163 96 145 69
-12 85 -26 158 -148 l80 -135 99 0 100 0 -36 55 c-20 30 -67 102 -105 159
l-69 105 62 52 c118 99 122 285 8 394 -82 78 -147 95 -366 95 l-199 0 0 -430z
m445 235 c107 -96 26 -225 -145 -231 l-130 -4 -6 118 c-3 65 -2 128 2 140 13
33 237 15 279 -23z"/>
<path d="M0 3651 l0 -101 1504 -1504 1503 -1503 1496 1503 1496 1504 1 100 0
100 -1500 -1500 -1500 -1500 -1500 1501 -1500 1500 0 -100z"/>
</g>
</svg>
