<?xml version="1.0" standalone="no"?>
<!DOCTYPE svg PUBLIC "-//W3C//DTD SVG 20010904//EN"
 "http://www.w3.org/TR/2001/REC-SVG-20010904/DTD/svg10.dtd">
<svg version="1.0" xmlns="http://www.w3.org/2000/svg"
 width="900.000000pt" height="900.000000pt" viewBox="0 0 900.000000 900.000000"
 preserveAspectRatio="xMidYMid meet">
<metadata>
Created by potrace 1.10, written by Peter Selinger 2001-2011
</metadata>
<g transform="translate(0.000000,900.000000) scale(0.100000,-0.100000)"
fill="#ffffff" stroke="none">
<path d="M2670 8985 c0 -8 -9 -19 -19 -24 -10 -6 -36 -34 -57 -63 -21 -29 -41
-55 -44 -58 -4 -3 -42 -52 -85 -110 -43 -58 -107 -141 -142 -185 -35 -44 -67
-84 -71 -90 -4 -5 -57 -75 -117 -155 -60 -80 -120 -159 -134 -176 -33 -39 -52
-64 -205 -264 -131 -170 -352 -458 -396 -515 -26 -34 -246 -321 -315 -410 -62
-82 -277 -361 -310 -404 -33 -42 -182 -238 -281 -367 -68 -90 -80 -121 -64
-170 24 -73 95 -93 193 -53 29 12 68 27 87 34 19 7 71 27 115 45 44 18 98 39
120 47 22 9 54 21 70 28 17 7 48 20 70 28 22 8 76 29 120 47 44 18 98 39 120
47 22 8 54 21 70 28 17 7 48 19 70 28 22 8 74 29 115 45 41 17 129 51 195 77
66 26 143 56 172 67 28 12 58 18 67 15 15 -6 16 -272 16 -3048 l0 -3041 34
-34 34 -34 621 0 620 0 36 31 35 31 2 3047 3 3046 32 -1 c17 -1 116 -36 220
-77 103 -42 242 -96 308 -122 170 -65 266 -104 298 -121 16 -8 35 -14 43 -14
8 0 22 -4 32 -10 16 -9 157 -67 232 -95 19 -7 89 -35 155 -61 66 -26 141 -49
167 -52 44 -4 50 -2 83 31 38 38 47 86 23 130 -10 20 -95 136 -108 147 -3 3
-18 23 -35 45 -16 22 -34 45 -40 51 -5 6 -68 89 -140 184 -71 95 -146 192
-165 215 -19 23 -87 111 -150 195 -63 84 -142 187 -176 229 -33 42 -103 132
-154 201 -52 69 -114 150 -138 180 -24 30 -49 62 -55 70 -7 8 -62 80 -122 160
-61 80 -113 147 -116 150 -3 3 -66 84 -139 180 -74 96 -150 196 -169 221 -20
25 -78 102 -130 170 -52 68 -113 146 -135 173 -23 27 -48 59 -56 72 -46 68
-167 218 -187 231 -13 8 -23 22 -23 29 0 10 -14 14 -50 14 -37 0 -50 -4 -50
-15z"/>
<path d="M5605 8629 l-35 -31 0 -3044 c0 -2610 -2 -3045 -14 -3050 -22 -9 -59
4 -306 104 -69 28 -179 71 -245 97 -116 45 -238 93 -300 120 -16 7 -48 20 -70
28 -84 33 -275 107 -398 156 -157 63 -195 65 -243 17 -37 -37 -45 -86 -23
-129 11 -21 160 -218 184 -243 5 -6 69 -89 140 -184 72 -96 137 -181 145 -189
8 -9 64 -81 125 -161 60 -80 128 -170 152 -200 23 -30 102 -133 175 -229 73
-95 153 -199 178 -230 83 -105 156 -201 428 -555 75 -99 155 -203 177 -231 22
-29 89 -117 149 -196 60 -79 121 -157 136 -174 14 -16 33 -40 41 -51 47 -70
166 -217 189 -234 34 -24 101 -26 135 -4 14 9 42 39 62 68 21 28 40 53 43 56
4 3 62 79 131 169 68 90 138 181 154 202 17 21 84 109 150 195 66 86 134 175
152 198 57 74 291 377 411 534 64 84 137 179 162 211 183 237 270 351 305 397
205 269 267 350 322 419 166 210 317 413 330 445 18 40 6 95 -27 125 -31 28
-98 31 -161 5 -30 -12 -70 -28 -89 -35 -19 -7 -71 -27 -115 -45 -44 -18 -98
-39 -120 -47 -22 -9 -53 -21 -70 -28 -16 -7 -48 -20 -70 -28 -22 -8 -76 -29
-120 -47 -44 -18 -98 -39 -120 -47 -22 -8 -53 -21 -70 -28 -16 -7 -48 -19 -70
-28 -22 -8 -74 -29 -115 -45 -41 -17 -129 -51 -195 -77 -66 -26 -143 -56 -172
-67 -28 -12 -58 -18 -67 -15 -15 6 -16 272 -16 3048 l0 3041 -34 34 -34 34
-621 0 -620 0 -36 -31z"/>
</g>
</svg>
