<?xml version="1.0" standalone="no"?>
<!DOCTYPE svg PUBLIC "-//W3C//DTD SVG 20010904//EN"
 "http://www.w3.org/TR/2001/REC-SVG-20010904/DTD/svg10.dtd">
<svg version="1.0" xmlns="http://www.w3.org/2000/svg"
 width="900.000000pt" height="900.000000pt" viewBox="0 0 900.000000 900.000000"
 preserveAspectRatio="xMidYMid meet">
<metadata>
Created by potrace 1.10, written by Peter Selinger 2001-2011
</metadata>
<g transform="translate(0.000000,900.000000) scale(0.100000,-0.100000)"
fill="#ffffff" stroke="none">
<path d="M4503 8992 c1 -4 -14 -25 -34 -45 -23 -23 -41 -55 -48 -82 -7 -29
-11 -206 -11 -523 0 -515 2 -536 52 -589 52 -56 -54 -53 2209 -53 2087 0 2087
0 2136 21 26 11 58 32 70 47 l22 27 1 548 0 548 -26 34 c-14 19 -34 37 -45 40
-10 4 -19 13 -19 21 0 12 -291 14 -2155 14 -1185 0 -2154 -4 -2152 -8z"/>
<path d="M4472 6376 c-25 -23 -41 -49 -50 -80 -17 -64 -17 -980 0 -1040 17
-60 59 -100 119 -114 78 -18 3215 -16 3283 2 36 9 59 24 83 51 l33 38 0 541
c0 513 -1 542 -19 570 -10 15 -32 37 -47 47 -28 18 -80 19 -1696 19 l-1668 0
-38 -34z"/>
<path d="M4533 3837 c-56 -16 -96 -56 -111 -112 -17 -65 -17 -984 1 -1040 14
-47 33 -75 67 -98 23 -16 110 -17 1208 -17 l1183 0 30 22 c16 12 38 37 49 56
19 32 20 53 20 560 0 487 -1 529 -18 554 -24 37 -60 62 -108 76 -58 17 -2260
15 -2321 -1z"/>
<path d="M4531 1265 c-56 -18 -86 -47 -105 -103 -14 -39 -16 -118 -16 -524 0
-318 4 -494 11 -523 7 -26 25 -59 46 -80 l34 -35 703 0 c789 0 744 -4 791 75
l26 44 -3 525 -3 524 -31 39 c-60 74 -39 72 -764 72 -515 0 -654 -3 -689 -14z"/>
</g>
</svg>
